<svg xmlns="http://www.w3.org/2000/svg" viewBox="0 0 651.32 345.77"><defs><style>.cls-1{fill:#b8d54c;}.cls-2,.cls-6{fill:#43ac39;}.cls-3,.cls-5,.cls-7{fill:#27292b;}.cls-4{fill:#606161;}.cls-5{stroke:#27292b;}.cls-5,.cls-6{stroke-miterlimit:10;stroke-width:0.5px;}.cls-6{stroke:#43ac39;}.cls-7{font-size:91.53px;font-family:Gilroy-ExtraBold, Gilroy;font-weight:800;}</style></defs><title>Ресурс 23</title><g id="Слой_2" data-name="Слой 2"><g id="Слой_1-2" data-name="Слой 1"><path class="cls-1" d="M330.07,67.16v58.05h58a46.69,46.69,0,1,1-58-58Z"/><path class="cls-2" d="M455.2,125.21A112.74,112.74,0,1,1,330.07,0V35.92a77.17,77.17,0,1,0,89.29,89.29Z"/><path class="cls-1" d="M388,98.73H356.55V67.16A46.5,46.5,0,0,1,388,98.73Z"/><path class="cls-3" d="M455.2,98.73H419.36a77.16,77.16,0,0,0-62.81-62.81V0A112.54,112.54,0,0,1,455.2,98.73Z"/><path class="cls-4" d="M388,125.21a46.69,46.69,0,1,1-58-58v58.05Z"/><path class="cls-4" d="M388,98.73H356.55V67.16A46.5,46.5,0,0,1,388,98.73Z"/><path class="cls-5" d="M388,125.21a46.69,46.69,0,1,1-58-58v58.05Z"/><path class="cls-6" d="M388,98.73H356.55V67.16A46.5,46.5,0,0,1,388,98.73Z"/><text class="cls-7" transform="translate(0 321.06)">REVIEW<tspan class="cls-2" x="330.69" y="0">MINING</tspan></text></g></g></svg>