<svg xmlns="http://www.w3.org/2000/svg" viewBox="0 0 34.37 34.37"><defs><style>.cls-1{fill:#b8d54c;}.cls-2,.cls-6{fill:#43ac39;}.cls-3,.cls-5{fill:#fff;}.cls-4{fill:#606161;}.cls-5{stroke:#fff;}.cls-5,.cls-6{stroke-miterlimit:10;stroke-width:0.5px;}.cls-6{stroke:#43ac39;}</style></defs><title>Ресурс 213</title><g id="Слой_2" data-name="Слой 2"><g id="OBJECTS"><path class="cls-1" d="M15.23,10.27v8.88H24.1a7.14,7.14,0,1,1-8.87-8.88Z"/><path class="cls-2" d="M34.37,19.15A17.24,17.24,0,1,1,15.23,0V5.49A11.8,11.8,0,1,0,28.89,19.15Z"/><path class="cls-1" d="M24.1,15.1H19.28V10.27A7.15,7.15,0,0,1,24.1,15.1Z"/><path class="cls-3" d="M34.37,15.1H28.89a11.84,11.84,0,0,0-9.61-9.61V0A17.21,17.21,0,0,1,34.37,15.1Z"/><path class="cls-4" d="M24.1,19.15a7.14,7.14,0,1,1-8.87-8.88v8.88Z"/><path class="cls-4" d="M24.1,15.1H19.28V10.27A7.15,7.15,0,0,1,24.1,15.1Z"/><path class="cls-5" d="M24.1,19.15a7.14,7.14,0,1,1-8.87-8.88v8.88Z"/><path class="cls-6" d="M24.1,15.1H19.28V10.27A7.15,7.15,0,0,1,24.1,15.1Z"/></g></g></svg>